# xmcd CD database file
#
# Track frame offsets:
#	150
#	30027
#	54100
#	87142
#	100202
#	146425
#	165375
#
# Disc length: 2693 seconds
#
# Revision: 1
# Processed by: cddbd v1.5PL3 Copyright (c) Steve Scherf et al.
# Submitted via: CDex 1.50beta8a
#
DISCID=400a8307
DTITLE=George Winston - WINTER INTO SPRING
DYEAR=1982
DGENRE=New Age
TTITLE0=January Stars
TTITLE1=February Sea
TTITLE2=Ocean Waves (O Mar)
TTITLE3=Reflection
TTITLE4=Rain/Dance
TTITLE5=Blossom/Meadow The Venice Dreamer
TTITLE6=Part One - Introduction ~ Part Two
EXTD=YEAR: 1982
EXTT0=
EXTT1=
EXTT2=
EXTT3=
EXTT4=
EXTT5=
EXTT6=
PLAYORDER=
